{"url":"https://api.github.com/repos/k4yt3x/video2x/issues/118","repository_url":"https://api.github.com/repos/k4yt3x/video2x","labels_url":"https://api.github.com/repos/k4yt3x/video2x/issues/118/labels{/name}","comments_url":"https://api.github.com/repos/k4yt3x/video2x/issues/118/comments","events_url":"https://api.github.com/repos/k4yt3x/video2x/issues/118/events","html_url":"https://github.com/k4yt3x/video2x/issues/118","id":463005502,"node_id":"MDU6SXNzdWU0NjMwMDU1MDI=","number":118,"title":"Last Frame Isn't Rendered","user":{"login":"JohnTravolski","id":36255053,"node_id":"MDQ6VXNlcjM2MjU1MDUz","avatar_url":"https://avatars.githubusercontent.com/u/36255053?v=4","gravatar_id":"","url":"https://api.github.com/users/JohnTravolski","html_url":"https://github.com/JohnTravolski","followers_url":"https://api.github.com/users/JohnTravolski/followers","following_url":"https://api.github.com/users/JohnTravolski/following{/other_user}","gists_url":"https://api.github.com/users/JohnTravolski/gists{/gist_id}","starred_url":"https://api.github.com/users/JohnTravolski/starred{/owner}{/repo}","subscriptions_url":"https://api.github.com/users/JohnTravolski/subscriptions","organizations_url":"https://api.github.com/users/JohnTravolski/orgs","repos_url":"https://api.github.com/users/JohnTravolski/repos","events_url":"https://api.github.com/users/JohnTravolski/events{/privacy}","received_events_url":"https://api.github.com/users/JohnTravolski/received_events","type":"User","site_admin":false},"labels":[{"id":847238628,"node_id":"MDU6TGFiZWw4NDcyMzg2Mjg=","url":"https://api.github.com/repos/k4yt3x/video2x/labels/type:Bug","name":"type:Bug","color":"d80000","default":false,"description":"Something isn't working"},{"id":1341562324,"node_id":"MDU6TGFiZWwxMzQxNTYyMzI0","url":"https://api.github.com/repos/k4yt3x/video2x/labels/cannot%20reproduce","name":"cannot reproduce","color":"e0186f","default":false,"description":"Unable to reproduce this issue"}],"state":"closed","locked":false,"assignee":{"login":"k4yt3x","id":21986859,"node_id":"MDQ6VXNlcjIxOTg2ODU5","avatar_url":"https://avatars.githubusercontent.com/u/21986859?v=4","gravatar_id":"","url":"https://api.github.com/users/k4yt3x","html_url":"https://github.com/k4yt3x","followers_url":"https://api.github.com/users/k4yt3x/followers","following_url":"https://api.github.com/users/k4yt3x/following{/other_user}","gists_url":"https://api.github.com/users/k4yt3x/gists{/gist_id}","starred_url":"https://api.github.com/users/k4yt3x/starred{/owner}{/repo}","subscriptions_url":"https://api.github.com/users/k4yt3x/subscriptions","organizations_url":"https://api.github.com/users/k4yt3x/orgs","repos_url":"https://api.github.com/users/k4yt3x/repos","events_url":"https://api.github.com/users/k4yt3x/events{/privacy}","received_events_url":"https://api.github.com/users/k4yt3x/received_events","type":"User","site_admin":false},"assignees":[{"login":"k4yt3x","id":21986859,"node_id":"MDQ6VXNlcjIxOTg2ODU5","avatar_url":"https://avatars.githubusercontent.com/u/21986859?v=4","gravatar_id":"","url":"https://api.github.com/users/k4yt3x","html_url":"https://github.com/k4yt3x","followers_url":"https://api.github.com/users/k4yt3x/followers","following_url":"https://api.github.com/users/k4yt3x/following{/other_user}","gists_url":"https://api.github.com/users/k4yt3x/gists{/gist_id}","starred_url":"https://api.github.com/users/k4yt3x/starred{/owner}{/repo}","subscriptions_url":"https://api.github.com/users/k4yt3x/subscriptions","organizations_url":"https://api.github.com/users/k4yt3x/orgs","repos_url":"https://api.github.com/users/k4yt3x/repos","events_url":"https://api.github.com/users/k4yt3x/events{/privacy}","received_events_url":"https://api.github.com/users/k4yt3x/received_events","type":"User","site_admin":false}],"milestone":null,"comments":2,"created_at":"2019-07-02T03:46:00Z","updated_at":"2020-05-09T06:33:58Z","closed_at":"2020-05-09T06:33:58Z","author_association":"NONE","active_lock_reason":null,"body":"## Environment Information\r\n\r\n|Module|Version|\r\n|-|-|\r\n|`video2x`|video2x-2.7.1-win32-full.zip|\r\n|`ffmpeg`|ffmpeg-20190330-5282cba-win64-static|\r\n|`waifu2x-caffe`|ver 1.2.0.2|\r\n|`waifu2x-converter-cpp`|Whatever was included in the zip|\r\n\r\n## Symptom\r\n\r\nIt appears that Video2X is not including the last frame of the video in the final export for some reason.  I'm not sure if I'm doing something wrong, or where exactly the problem lies.  Let me know what you think.  Here's what I mean:\r\n\r\n`Upscaling Progress:  99%|####################################################################################################################################################7 | 120/121 [11:17<00:05,  5.68s/it]`\r\n\r\nIn Premiere, we can see that a frame of the output is missing:\r\n![Adobe Premiere Pro_2019-07-01_22-35-50](https://user-images.githubusercontent.com/36255053/60481088-935adb80-9c51-11e9-83a0-32a4690c28ae.png)\r\n\r\nWhy isn't the last frame appearing in the output file?  Is this a setting that can be changed somewhere?  I'm not sure what's going wrong.  The full output is included below, for reference:\r\n\r\n```\r\nPS E:\\upscalingTesting\\video2x> ./video2x -i testinput4.mp4 -o out4_8bit.mp4 -m cudnn -r 2\r\n__      __  _       _                  ___   __   __\r\n\\ \\    / / (_)     | |                |__ \\  \\ \\ / /\r\n \\ \\  / /   _    __| |   ___    ___      ) |  \\ V /\r\n  \\ \\/ /   | |  / _` |  / _ \\  / _ \\    / /    > <\r\n   \\  /    | | | (_| | |  __/ | (_) |  / /_   / . \\\r\n    \\/     |_|  \\__,_|  \\___|  \\___/  |____| /_/ \\_\\\r\n\r\n               Video2X Video Enlarger\r\n\r\n                   Version 2.7.1\r\n\r\n[!] WARNING: Specified cache directory C:\\Users\\Rob\\AppData\\Local\\Temp\\video2x does not exist\r\n[?] USER: Create directory? [Y/n]: y\r\n[+] INFO: C:\\Users\\Rob\\AppData\\Local\\Temp\\video2x created\r\n[+] INFO: Upscaling single video file: testinput4.mp4\r\n2019-07-01 22:19:44.982640 [+] INFO: Extracted frames are being saved to: C:\\Users\\Rob\\AppData\\Local\\Temp\\video2x\\tmpdbdu49ir\r\n2019-07-01 22:19:44.985188 [+] INFO: Upscaled frames are being saved to: C:\\Users\\Rob\\AppData\\Local\\Temp\\video2x\\tmp0wf1ug5l\r\n2019-07-01 22:19:44.986191 [+] INFO: Executing: ['E:\\\\upscalingTesting\\\\video2x\\\\dependencies\\\\ffmpeg-latest-win64-static\\\\bin\\\\ffmpeg.exe', '-hwaccel', 'auto', '-y', '-i', 'E:\\\\upscalingTesting\\\\video2x\\\\testinput4.mp4', 'C:\\\\Users\\\\Rob\\\\AppData\\\\Local\\\\Temp\\\\video2x\\\\tmpdbdu49ir\\\\extracted_%0d.png']\r\nffmpeg version N-93485-g5282cbae61 Copyright (c) 2000-2019 the FFmpeg developers\r\n  built with gcc 8.2.1 (GCC) 20190212\r\n  configuration: --enable-gpl --enable-version3 --enable-sdl2 --enable-fontconfig --enable-gnutls --enable-iconv --enable-libass --enable-libdav1d --enable-libbluray --enable-libfreetype --enable-libmp3lame --enable-libopencore-amrnb --enable-libopencore-amrwb --enable-libopenjpeg --enable-libopus --enable-libshine --enable-libsnappy --enable-libsoxr --enable-libtheora --enable-libtwolame --enable-libvpx --enable-libwavpack --enable-libwebp --enable-libx264 --enable-libx265 --enable-libxml2 --enable-libzimg --enable-lzma --enable-zlib --enable-gmp --enable-libvidstab --enable-libvorbis --enable-libvo-amrwbenc --enable-libmysofa --enable-libspeex --enable-libxvid --enable-libaom --enable-libmfx --enable-amf --enable-ffnvcodec --enable-cuvid --enable-d3d11va --enable-nvenc --enable-nvdec --enable-dxva2 --enable-avisynth --enable-libopenmpt\r\n  libavutil      56. 26.100 / 56. 26.100\r\n  libavcodec     58. 47.106 / 58. 47.106\r\n  libavformat    58. 26.101 / 58. 26.101\r\n  libavdevice    58.  7.100 / 58.  7.100\r\n  libavfilter     7. 48.100 /  7. 48.100\r\n  libswscale      5.  4.100 /  5.  4.100\r\n  libswresample   3.  4.100 /  3.  4.100\r\n  libpostproc    55.  4.100 / 55.  4.100\r\nInput #0, mov,mp4,m4a,3gp,3g2,mj2, from 'E:\\upscalingTesting\\video2x\\testinput4.mp4':\r\n  Metadata:\r\n    major_brand     : mp42\r\n    minor_version   : 0\r\n    compatible_brands: mp42mp41\r\n    creation_time   : 2019-07-02T02:52:54.000000Z\r\n  Duration: 00:00:02.07, start: 0.000000, bitrate: 36164 kb/s\r\n    Stream #0:0(eng): Video: h264 (Main) (avc1 / 0x31637661), yuv420p(tv, bt709), 1920x1080, 36693 kb/s, 59.94 fps, 59.94 tbr, 60k tbn, 119.88 tbc (default)\r\n    Metadata:\r\n      creation_time   : 2019-07-02T02:52:54.000000Z\r\n      handler_name    : ?Mainconcept Video Media Handler\r\n      encoder         : AVC Coding\r\n    Stream #0:1(eng): Audio: aac (LC) (mp4a / 0x6134706D), 48000 Hz, stereo, fltp, 317 kb/s (default)\r\n    Metadata:\r\n      creation_time   : 2019-07-02T02:52:54.000000Z\r\n      handler_name    : #Mainconcept MP4 Sound Media Handler\r\n[h264 @ 000001d698a92040] Using auto hwaccel type dxva2 with new default device.\r\nStream mapping:\r\n  Stream #0:0 -> #0:0 (h264 (native) -> png (native))\r\nPress [q] to stop, [?] for help\r\nOutput #0, image2, to 'C:\\Users\\Rob\\AppData\\Local\\Temp\\video2x\\tmpdbdu49ir\\extracted_%0d.png':\r\n  Metadata:\r\n    major_brand     : mp42\r\n    minor_version   : 0\r\n    compatible_brands: mp42mp41\r\n    encoder         : Lavf58.26.101\r\n    Stream #0:0(eng): Video: png, rgb24, 1920x1080, q=2-31, 200 kb/s, 59.94 fps, 59.94 tbn, 59.94 tbc (default)\r\n    Metadata:\r\n      creation_time   : 2019-07-02T02:52:54.000000Z\r\n      handler_name    : ?Mainconcept Video Media Handler\r\n      encoder         : Lavc58.47.106 png\r\nframe=  121 fps=9.5 q=-0.0 Lsize=N/A time=00:00:02.01 bitrate=N/A speed=0.158x\r\nvideo:562121kB audio:0kB subtitle:0kB other streams:0kB global headers:0kB muxing overhead: unknown\r\n[+] INFO: Reading video information\r\n2019-07-01 22:19:58.159862 [+] INFO: Executing: E:\\upscalingTesting\\video2x\\dependencies\\ffmpeg-latest-win64-static\\bin\\ffprobe.exe -v quiet -print_format json -show_format -show_streams -i E:\\upscalingTesting\\video2x\\testinput4.mp4\r\n[+] INFO: Framerate: 59.94005994005994\r\n[+] INFO: Starting to upscale extracted images\r\n2019-07-01 22:19:58.422964 [+] INFO: Starting upscaled image cleaner\r\n2019-07-01 22:19:58.424469 [+] INFO: [upscaler] Thread 0 started\r\n2019-07-01 22:19:58.424974 [+] INFO: Executing: ['E:\\\\upscalingTesting\\\\video2x\\\\dependencies\\\\waifu2x-caffe\\\\waifu2x-caffe-cui.exe', '--output_extention', 'png', '--mode', 'noise_scale', '--scale_ratio', '2.0', '--noise_level', '3', '--process', 'cudnn', '--crop_size', '128', '--output_quality', '-1', '--output_depth', '8', '--batch_size', '1', '--gpu', '0', '--tta', '0', '--input_path', 'C:\\\\Users\\\\Rob\\\\AppData\\\\Local\\\\Temp\\\\video2x\\\\tmpdbdu49ir\\\\0', '--output_path', 'C:\\\\Users\\\\Rob\\\\AppData\\\\Local\\\\Temp\\\\video2x\\\\tmp0wf1ug5l']\r\nUpscaling Progress:  99%|####################################################################################################################################################7 | 120/121 [11:17<00:05,  5.68s/it]変換に成功しました\r\n\r\n2019-07-01 22:31:22.180881 [+] INFO: [upscaler] Thread 0 exiting\r\n2019-07-01 22:31:22.181382 [+] INFO: Killing upscaled image cleaner\r\n[+] INFO: Upscaling completed\r\n[+] INFO: Converting extracted frames into video\r\n2019-07-01 22:31:22.195901 [+] INFO: Executing: ['E:\\\\upscalingTesting\\\\video2x\\\\dependencies\\\\ffmpeg-latest-win64-static\\\\bin\\\\ffmpeg.exe', '-r', '59.94005994005994', '-s', '3840x2160', '-f', 'image2', '-i', 'C:\\\\Users\\\\Rob\\\\AppData\\\\Local\\\\Temp\\\\video2x\\\\tmp0wf1ug5l\\\\extracted_%d.png', '-vcodec', 'libx264', '-crf', '17', '-pix_fmt', 'yuv420p', '-y', 'C:\\\\Users\\\\Rob\\\\AppData\\\\Local\\\\Temp\\\\video2x\\\\tmp0wf1ug5l\\\\no_audio.mp4']\r\nffmpeg version N-93485-g5282cbae61 Copyright (c) 2000-2019 the FFmpeg developers\r\n  built with gcc 8.2.1 (GCC) 20190212\r\n  configuration: --enable-gpl --enable-version3 --enable-sdl2 --enable-fontconfig --enable-gnutls --enable-iconv --enable-libass --enable-libdav1d --enable-libbluray --enable-libfreetype --enable-libmp3lame --enable-libopencore-amrnb --enable-libopencore-amrwb --enable-libopenjpeg --enable-libopus --enable-libshine --enable-libsnappy --enable-libsoxr --enable-libtheora --enable-libtwolame --enable-libvpx --enable-libwavpack --enable-libwebp --enable-libx264 --enable-libx265 --enable-libxml2 --enable-libzimg --enable-lzma --enable-zlib --enable-gmp --enable-libvidstab --enable-libvorbis --enable-libvo-amrwbenc --enable-libmysofa --enable-libspeex --enable-libxvid --enable-libaom --enable-libmfx --enable-amf --enable-ffnvcodec --enable-cuvid --enable-d3d11va --enable-nvenc --enable-nvdec --enable-dxva2 --enable-avisynth --enable-libopenmpt\r\n  libavutil      56. 26.100 / 56. 26.100\r\n  libavcodec     58. 47.106 / 58. 47.106\r\n  libavformat    58. 26.101 / 58. 26.101\r\n  libavdevice    58.  7.100 / 58.  7.100\r\n  libavfilter     7. 48.100 /  7. 48.100\r\n  libswscale      5.  4.100 /  5.  4.100\r\n  libswresample   3.  4.100 /  3.  4.100\r\n  libpostproc    55.  4.100 / 55.  4.100\r\nInput #0, image2, from 'C:\\Users\\Rob\\AppData\\Local\\Temp\\video2x\\tmp0wf1ug5l\\extracted_%d.png':\r\n  Duration: 00:00:02.02, start: 0.000000, bitrate: N/A\r\n    Stream #0:0: Video: png, rgb24(pc), 3840x2160, 59.94 tbr, 59.94 tbn, 59.94 tbc\r\nStream mapping:\r\n  Stream #0:0 -> #0:0 (png (native) -> h264 (libx264))\r\nPress [q] to stop, [?] for help\r\n[libx264 @ 0000024364860340] using cpu capabilities: MMX2 SSE2Fast SSSE3 SSE4.2 AVX FMA3 BMI2 AVX2\r\n[libx264 @ 0000024364860340] profile Progressive High, level 5.2, 4:2:0, 8-bit\r\n[libx264 @ 0000024364860340] 264 - core 157 r2969 d4099dd - H.264/MPEG-4 AVC codec - Copyleft 2003-2019 - http://www.videolan.org/x264.html - options: cabac=1 ref=3 deblock=1:0:0 analyse=0x3:0x113 me=hex subme=7 psy=1 psy_rd=1.00:0.00 mixed_ref=1 me_range=16 chroma_me=1 trellis=1 8x8dct=1 cqm=0 deadzone=21,11 fast_pskip=1 chroma_qp_offset=-2 threads=12 lookahead_threads=2 sliced_threads=0 nr=0 decimate=1 interlaced=0 bluray_compat=0 constrained_intra=0 bframes=3 b_pyramid=2 b_adapt=1 b_bias=0 direct=1 weightb=1 open_gop=0 weightp=2 keyint=250 keyint_min=25 scenecut=40 intra_refresh=0 rc_lookahead=40 rc=crf mbtree=1 crf=17.0 qcomp=0.60 qpmin=0 qpmax=69 qpstep=4 ip_ratio=1.40 aq=1:1.00\r\nOutput #0, mp4, to 'C:\\Users\\Rob\\AppData\\Local\\Temp\\video2x\\tmp0wf1ug5l\\no_audio.mp4':\r\n  Metadata:\r\n    encoder         : Lavf58.26.101\r\n    Stream #0:0: Video: h264 (libx264) (avc1 / 0x31637661), yuv420p, 3840x2160, q=-1--1, 59.94 fps, 60k tbn, 59.94 tbc\r\n    Metadata:\r\n      encoder         : Lavc58.47.106 libx264\r\n    Side data:\r\n      cpb: bitrate max/min/avg: 0/0/0 buffer size: 0 vbv_delay: -1\r\nframe=  121 fps=3.4 q=-1.0 Lsize=   21864kB time=00:00:01.96 bitrate=90982.1kbits/s speed=0.0556x\r\nvideo:21862kB audio:0kB subtitle:0kB other streams:0kB global headers:0kB muxing overhead: 0.011038%\r\n[libx264 @ 0000024364860340] frame I:1     Avg QP:22.07  size:522412\r\n[libx264 @ 0000024364860340] frame P:30    Avg QP:21.75  size:400295\r\n[libx264 @ 0000024364860340] frame B:90    Avg QP:23.62  size:109495\r\n[libx264 @ 0000024364860340] consecutive B-frames:  0.8%  0.0%  0.0% 99.2%\r\n[libx264 @ 0000024364860340] mb I  I16..4:  4.0% 80.0% 16.0%\r\n[libx264 @ 0000024364860340] mb P  I16..4:  4.7% 54.4%  6.8%  P16..4: 18.7% 11.9%  3.5%  0.0%  0.0%    skip: 0.1%\r\n[libx264 @ 0000024364860340] mb B  I16..4:  0.3%  1.4%  0.1%  B16..8: 39.7%  9.2%  2.3%  direct:18.2%  skip:28.8%  L0:38.0% L1:43.6% BI:18.3%\r\n[libx264 @ 0000024364860340] 8x8 transform intra:82.1% inter:80.5%\r\n[libx264 @ 0000024364860340] coded y,uvDC,uvAC intra: 73.6% 90.7% 50.4% inter: 31.4% 49.5% 4.3%\r\n[libx264 @ 0000024364860340] i16 v,h,dc,p: 21%  7%  3% 70%\r\n[libx264 @ 0000024364860340] i8 v,h,dc,ddl,ddr,vr,hd,vl,hu: 24% 14% 11%  8%  7%  9%  7% 11%  9%\r\n[libx264 @ 0000024364860340] i4 v,h,dc,ddl,ddr,vr,hd,vl,hu: 27% 17% 12%  8%  9%  8%  7%  7%  5%\r\n[libx264 @ 0000024364860340] i8c dc,h,v,p: 32% 11% 35% 22%\r\n[libx264 @ 0000024364860340] Weighted P-Frames: Y:0.0% UV:0.0%\r\n[libx264 @ 0000024364860340] ref P L0: 57.3% 23.9% 12.1%  6.7%\r\n[libx264 @ 0000024364860340] ref B L0: 97.0%  2.2%  0.7%\r\n[libx264 @ 0000024364860340] ref B L1: 98.8%  1.2%\r\n[libx264 @ 0000024364860340] kb/s:88714.54\r\n[+] INFO: Conversion completed\r\n[+] INFO: Migrating audio tracks and subtitles to upscaled video\r\n2019-07-01 22:31:58.280943 [+] INFO: Executing: ['E:\\\\upscalingTesting\\\\video2x\\\\dependencies\\\\ffmpeg-latest-win64-static\\\\bin\\\\ffmpeg.exe', '-i', 'C:\\\\Users\\\\Rob\\\\AppData\\\\Local\\\\Temp\\\\video2x\\\\tmp0wf1ug5l\\\\no_audio.mp4', '-i', 'E:\\\\upscalingTesting\\\\video2x\\\\testinput4.mp4', '-vcodec', 'libx264', '-crf', '17', '-pix_fmt', 'yuv420p', 'E:\\\\upscalingTesting\\\\video2x\\\\out4_8bit.mp4', '-y']\r\nffmpeg version N-93485-g5282cbae61 Copyright (c) 2000-2019 the FFmpeg developers\r\n  built with gcc 8.2.1 (GCC) 20190212\r\n  configuration: --enable-gpl --enable-version3 --enable-sdl2 --enable-fontconfig --enable-gnutls --enable-iconv --enable-libass --enable-libdav1d --enable-libbluray --enable-libfreetype --enable-libmp3lame --enable-libopencore-amrnb --enable-libopencore-amrwb --enable-libopenjpeg --enable-libopus --enable-libshine --enable-libsnappy --enable-libsoxr --enable-libtheora --enable-libtwolame --enable-libvpx --enable-libwavpack --enable-libwebp --enable-libx264 --enable-libx265 --enable-libxml2 --enable-libzimg --enable-lzma --enable-zlib --enable-gmp --enable-libvidstab --enable-libvorbis --enable-libvo-amrwbenc --enable-libmysofa --enable-libspeex --enable-libxvid --enable-libaom --enable-libmfx --enable-amf --enable-ffnvcodec --enable-cuvid --enable-d3d11va --enable-nvenc --enable-nvdec --enable-dxva2 --enable-avisynth --enable-libopenmpt\r\n  libavutil      56. 26.100 / 56. 26.100\r\n  libavcodec     58. 47.106 / 58. 47.106\r\n  libavformat    58. 26.101 / 58. 26.101\r\n  libavdevice    58.  7.100 / 58.  7.100\r\n  libavfilter     7. 48.100 /  7. 48.100\r\n  libswscale      5.  4.100 /  5.  4.100\r\n  libswresample   3.  4.100 /  3.  4.100\r\n  libpostproc    55.  4.100 / 55.  4.100\r\nInput #0, mov,mp4,m4a,3gp,3g2,mj2, from 'C:\\Users\\Rob\\AppData\\Local\\Temp\\video2x\\tmp0wf1ug5l\\no_audio.mp4':\r\n  Metadata:\r\n    major_brand     : isom\r\n    minor_version   : 512\r\n    compatible_brands: isomiso2avc1mp41\r\n    encoder         : Lavf58.26.101\r\n  Duration: 00:00:02.02, start: 0.000000, bitrate: 88713 kb/s\r\n    Stream #0:0(und): Video: h264 (High) (avc1 / 0x31637661), yuv420p, 3840x2160, 88717 kb/s, 59.94 fps, 59.94 tbr, 60k tbn, 119.88 tbc (default)\r\n    Metadata:\r\n      handler_name    : VideoHandler\r\nInput #1, mov,mp4,m4a,3gp,3g2,mj2, from 'E:\\upscalingTesting\\video2x\\testinput4.mp4':\r\n  Metadata:\r\n    major_brand     : mp42\r\n    minor_version   : 0\r\n    compatible_brands: mp42mp41\r\n    creation_time   : 2019-07-02T02:52:54.000000Z\r\n  Duration: 00:00:02.07, start: 0.000000, bitrate: 36164 kb/s\r\n    Stream #1:0(eng): Video: h264 (Main) (avc1 / 0x31637661), yuv420p(tv, bt709), 1920x1080, 36693 kb/s, 59.94 fps, 59.94 tbr, 60k tbn, 119.88 tbc (default)\r\n    Metadata:\r\n      creation_time   : 2019-07-02T02:52:54.000000Z\r\n      handler_name    : ?Mainconcept Video Media Handler\r\n      encoder         : AVC Coding\r\n    Stream #1:1(eng): Audio: aac (LC) (mp4a / 0x6134706D), 48000 Hz, stereo, fltp, 317 kb/s (default)\r\n    Metadata:\r\n      creation_time   : 2019-07-02T02:52:54.000000Z\r\n      handler_name    : #Mainconcept MP4 Sound Media Handler\r\nStream mapping:\r\n  Stream #0:0 -> #0:0 (h264 (native) -> h264 (libx264))\r\n  Stream #1:1 -> #0:1 (aac (native) -> aac (native))\r\nPress [q] to stop, [?] for help\r\n[libx264 @ 00000213f1f79940] using cpu capabilities: MMX2 SSE2Fast SSSE3 SSE4.2 AVX FMA3 BMI2 AVX2\r\n[libx264 @ 00000213f1f79940] profile Progressive High, level 5.2, 4:2:0, 8-bit\r\n[libx264 @ 00000213f1f79940] 264 - core 157 r2969 d4099dd - H.264/MPEG-4 AVC codec - Copyleft 2003-2019 - http://www.videolan.org/x264.html - options: cabac=1 ref=3 deblock=1:0:0 analyse=0x3:0x113 me=hex subme=7 psy=1 psy_rd=1.00:0.00 mixed_ref=1 me_range=16 chroma_me=1 trellis=1 8x8dct=1 cqm=0 deadzone=21,11 fast_pskip=1 chroma_qp_offset=-2 threads=12 lookahead_threads=2 sliced_threads=0 nr=0 decimate=1 interlaced=0 bluray_compat=0 constrained_intra=0 bframes=3 b_pyramid=2 b_adapt=1 b_bias=0 direct=1 weightb=1 open_gop=0 weightp=2 keyint=250 keyint_min=25 scenecut=40 intra_refresh=0 rc_lookahead=40 rc=crf mbtree=1 crf=17.0 qcomp=0.60 qpmin=0 qpmax=69 qpstep=4 ip_ratio=1.40 aq=1:1.00\r\nOutput #0, mp4, to 'E:\\upscalingTesting\\video2x\\out4_8bit.mp4':\r\n  Metadata:\r\n    major_brand     : isom\r\n    minor_version   : 512\r\n    compatible_brands: isomiso2avc1mp41\r\n    encoder         : Lavf58.26.101\r\n    Stream #0:0(und): Video: h264 (libx264) (avc1 / 0x31637661), yuv420p(progressive), 3840x2160, q=-1--1, 59.94 fps, 60k tbn, 59.94 tbc (default)\r\n    Metadata:\r\n      handler_name    : VideoHandler\r\n      encoder         : Lavc58.47.106 libx264\r\n    Side data:\r\n      cpb: bitrate max/min/avg: 0/0/0 buffer size: 0 vbv_delay: -1\r\n    Stream #0:1(eng): Audio: aac (LC) (mp4a / 0x6134706D), 48000 Hz, stereo, fltp, 128 kb/s (default)\r\n    Metadata:\r\n      creation_time   : 2019-07-02T02:52:54.000000Z\r\n      handler_name    : #Mainconcept MP4 Sound Media Handler\r\n      encoder         : Lavc58.47.106 aac\r\nframe=  121 fps=4.7 q=-1.0 Lsize=   20576kB time=00:00:02.02 bitrate=83172.3kbits/s speed=0.0795x\r\nvideo:20571kB audio:1kB subtitle:0kB other streams:0kB global headers:0kB muxing overhead: 0.021950%\r\n[libx264 @ 00000213f1f79940] frame I:1     Avg QP:21.81  size:509514\r\n[libx264 @ 00000213f1f79940] frame P:31    Avg QP:21.43  size:391425\r\n[libx264 @ 00000213f1f79940] frame B:89    Avg QP:23.53  size: 94615\r\n[libx264 @ 00000213f1f79940] consecutive B-frames:  0.8%  3.3%  0.0% 95.9%\r\n[libx264 @ 00000213f1f79940] mb I  I16..4:  3.5% 82.5% 14.0%\r\n[libx264 @ 00000213f1f79940] mb P  I16..4:  4.1% 53.5%  5.6%  P16..4: 20.7% 12.3%  3.5%  0.0%  0.0%    skip: 0.2%\r\n[libx264 @ 00000213f1f79940] mb B  I16..4:  0.4%  2.3%  0.2%  B16..8: 39.5%  7.4%  1.7%  direct:14.6%  skip:34.0%  L0:46.3% L1:36.0% BI:17.8%\r\n[libx264 @ 00000213f1f79940] 8x8 transform intra:84.2% inter:83.1%\r\n[libx264 @ 00000213f1f79940] coded y,uvDC,uvAC intra: 74.4% 92.7% 50.2% inter: 26.1% 45.1% 3.7%\r\n[libx264 @ 00000213f1f79940] i16 v,h,dc,p: 24%  9%  5% 63%\r\n[libx264 @ 00000213f1f79940] i8 v,h,dc,ddl,ddr,vr,hd,vl,hu: 25% 14% 11%  8%  7%  9%  7% 11%  9%\r\n[libx264 @ 00000213f1f79940] i4 v,h,dc,ddl,ddr,vr,hd,vl,hu: 28% 17% 11%  7%  9%  8%  7%  7%  5%\r\n[libx264 @ 00000213f1f79940] i8c dc,h,v,p: 31% 11% 37% 21%\r\n[libx264 @ 00000213f1f79940] Weighted P-Frames: Y:0.0% UV:0.0%\r\n[libx264 @ 00000213f1f79940] ref P L0: 59.3% 22.7% 12.8%  5.2%\r\n[libx264 @ 00000213f1f79940] ref B L0: 97.4%  2.2%  0.4%\r\n[libx264 @ 00000213f1f79940] ref B L1: 99.5%  0.5%\r\n[libx264 @ 00000213f1f79940] kb/s:83477.86\r\n[aac @ 00000213f1f664c0] Qavg: 65536.000\r\nCleaning up cache directory: C:\\Users\\Rob\\AppData\\Local\\Temp\\video2x\\tmpdbdu49ir\r\nCleaning up cache directory: C:\\Users\\Rob\\AppData\\Local\\Temp\\video2x\\tmp0wf1ug5l\r\n[+] INFO: Program completed, taking 759.62334 seconds\r\n```\r\n","closed_by":{"login":"k4yt3x","id":21986859,"node_id":"MDQ6VXNlcjIxOTg2ODU5","avatar_url":"https://avatars.githubusercontent.com/u/21986859?v=4","gravatar_id":"","url":"https://api.github.com/users/k4yt3x","html_url":"https://github.com/k4yt3x","followers_url":"https://api.github.com/users/k4yt3x/followers","following_url":"https://api.github.com/users/k4yt3x/following{/other_user}","gists_url":"https://api.github.com/users/k4yt3x/gists{/gist_id}","starred_url":"https://api.github.com/users/k4yt3x/starred{/owner}{/repo}","subscriptions_url":"https://api.github.com/users/k4yt3x/subscriptions","organizations_url":"https://api.github.com/users/k4yt3x/orgs","repos_url":"https://api.github.com/users/k4yt3x/repos","events_url":"https://api.github.com/users/k4yt3x/events{/privacy}","received_events_url":"https://api.github.com/users/k4yt3x/received_events","type":"User","site_admin":false},"reactions":{"url":"https://api.github.com/repos/k4yt3x/video2x/issues/118/reactions","total_count":0,"+1":0,"-1":0,"laugh":0,"hooray":0,"confused":0,"heart":0,"rocket":0,"eyes":0},"timeline_url":"https://api.github.com/repos/k4yt3x/video2x/issues/118/timeline","performed_via_github_app":null,"state_reason":"completed"}